<?xml version="1.0" encoding="UTF-8"?>
<svg id="Layer_1" data-name="Layer 1" xmlns="http://www.w3.org/2000/svg" viewBox="0 0 64.54 64.94">
  <defs>
    <style>
      .cls-1, .cls-2 {
        fill: none;
      }

      .cls-3, .cls-4 {
        fill: #231f20;
      }

      .cls-4 {
        stroke-linecap: square;
        stroke-linejoin: round;
      }

      .cls-4, .cls-2 {
        stroke: #231f20;
        stroke-width: 1.6px;
      }
    </style>
  </defs>
  <polygon class="cls-1" points="36.86 57.28 57.35 36.34 43.62 22.68 23.11 43.63 36.86 57.28"/>
  <polygon class="cls-3" points="27.05 47.65 47.6 26.63 43.54 22.64 22.97 43.67 27.05 47.65"/>
  <polygon class="cls-3" points="34.12 54.56 54.66 33.52 50.58 29.53 30.03 50.56 34.12 54.56"/>
  <path class="cls-3" d="M27.97,23.84c1.61,1.57,4.21,1.57,5.8-.07,1.59-1.64,1.56-4.23-.06-5.8-1.62-1.59-4.23-1.56-5.81.06-1.58,1.63-1.56,4.23.07,5.81Z"/>
  <path class="cls-3" d="M23.78,28.15c1.63,1.57,1.66,4.17.08,5.78-1.6,1.62-4.2,1.68-5.81.06-1.62-1.56-1.65-4.17-.07-5.8,1.57-1.6,4.19-1.63,5.8-.04Z"/>
  <path class="cls-2" d="M16.3,42.71c-5.11,8.36-5.35,17.56-.51,20.52,4.04,2.47,10.35-.22,15.32-6.06l-14.81-14.46Z"/>
  <path class="cls-2" d="M42.22,16.25c8.19-5.37,17.39-5.88,20.5-1.14,2.59,3.96.1,10.36-5.59,15.5l-14.91-14.36Z"/>
  <polygon class="cls-3" points="57.3 36.34 57.62 56.92 36.81 57.14 57.3 36.34"/>
  <path class="cls-4" d="M18.58,18.79c-4.35,4.45-7.34,9.09-8.16,12.31L.8,28.36s4.93.16,6.32-2.82c1.41-3.06-.91-6.32-.91-6.32,0,0,4.19,1.81,6.2-.41,2.44-2.62-.92-6.94-.92-6.94,0,0,4.4,3.26,6.97.76,2.17-2.09.25-6.24.25-6.24,0,0,3.33,2.25,6.33.78,2.93-1.45,2.67-6.38,2.67-6.38l2.94,9.55c-3.18.88-7.78,3.99-12.08,8.44Z"/>
</svg>